# xmcd
#
# Track frame offsets:
#	150
#	10108
#	25243
#	36116
#	45489
#	58079
#	68263
#	82001
#	97155
#	108605
#	121381
#	131846
#
# Disc length: 1884 seconds
#
# Revision: 0
# Processed by: cddbd v1.5.2PL0 Copyright (c) Steve Scherf et al.
# Submitted via: audiograbber 1.83.01
#
DISCID=9e075a0c
DTITLE=Various Artist - The Best Of Country and West Vol. 3
DYEAR=1900
DGENRE=Country
TTITLE0=Jerry Reed - Are You From Dixie
TTITLE1=Bobby Bare - (Margie's At) The Lincoln Park Inn
TTITLE2=Liz Anderson - Husband Hunting
TTITLE3=Waylon Jennings - Brown Eyed Handsome
TTITLE4=Jim Reeves  - Nobody's Fool
TTITLE5=Porter Wagoner - Big Wind
TTITLE6=Charley Pride - All I Have To Offer (Is Me)
TTITLE7=Jessi Colter - Take A Message To Laura
TTITLE8=Kenny Price  - Northeast Arkansas Mississippi County Bootlegger 
TTITLE9=Jim Ed Brown - Ginger Is Gentle And Waiting For Me 
TTITLE10=Skeeter Davis - I'm A Lover (Not A Fighter)
TTITLE11=Norma Jean - Somebody's Gonna Plow Your Field 
EXTD=
EXTT0=
EXTT1=
EXTT2=
EXTT3=
EXTT4=
EXTT5=
EXTT6=
EXTT7=
EXTT8=
EXTT9=
EXTT10=
EXTT11=
PLAYORDER=
